<svg width="784" height="223" viewBox="0 0 784 223" fill="none" xmlns="http://www.w3.org/2000/svg">
<path d="M641.416 0.638846C704.981 5.89144 734.955 44.8481 759.244 82.9294C783.017 121.011 800.588 158.435 758.728 179.665C716.351 200.675 614.026 205.49 541.675 210.086C469.324 214.463 426.947 218.621 380.436 221.248C333.408 223.655 282.246 224.53 228.499 217.527C174.753 210.524 118.423 195.641 71.3945 170.691C24.3664 145.742 -12.8426 111.162 4.21154 82.054C20.7489 53.1647 91.5493 29.7469 163.9 25.8075C236.251 21.8681 310.669 37.1881 395.94 30.6224C481.21 24.0566 578.367 -4.61374 641.416 0.638846Z" fill="url(#paint0_linear_24_5)"/>
<defs>
<linearGradient id="paint0_linear_24_5" x1="168.115" y1="34.8673" x2="584.362" y2="369.367" gradientUnits="userSpaceOnUse">
<stop stop-color="#FF0066"/>
<stop offset="1" stop-color="#FF5398"/>
</linearGradient>
</defs>
</svg>
