<?xml version="1.0" standalone="no"?>
<svg viewBox="0 0 200 200" xmlns="http://www.w3.org/2000/svg">
  <path fill="#FF0066" d="M23.3,-38.7C29.1,-32.4,32.2,-24.3,34.1,-16.6C36,-8.9,36.8,-1.8,34.7,4.2C32.7,10.3,27.9,15.1,23.7,21.4C19.6,27.6,16.1,35.3,7.8,47.1C-0.5,59,-13.6,75,-23.5,74.6C-33.4,74.2,-40,57.3,-42.3,43.1C-44.6,28.9,-42.6,17.4,-39.1,8.7C-35.6,0,-30.7,-5.9,-28.5,-13.9C-26.3,-22,-26.7,-32.1,-22.4,-39.1C-18.1,-46.1,-9.1,-49.9,-0.2,-49.6C8.7,-49.3,17.4,-44.9,23.3,-38.7Z" transform="translate(100 100)" />
</svg>
