<?xml version="1.0" standalone="no"?>
<svg viewBox="0 0 200 200" xmlns="http://www.w3.org/2000/svg">
      <style type="text/css">
        path{fill:url(#MyGradient)}
      </style>
      <defs>
        <linearGradient id="MyGradient" x1="0" x2="2" y1="0" y2="2">
          <stop offset="0%" stop-color="#FF0066" />
          <stop offset="25%" stop-color="#e4005b" />
          <stop offset="50%" stop-color="#ca0051" />
          <stop offset="75%" stop-color="#b10046" />
          <stop offset="100%" stop-color="#98003C" />
        </linearGradient>
      </defs>
  <path fill="#FF0066" d="M33.7,-40.4C48.8,-42.7,69.9,-42.1,77.8,-33.1C85.8,-24,80.8,-6.6,74.1,7.7C67.4,21.9,59,32.9,50.2,44.1C41.4,55.2,32.1,66.7,20.3,71.1C8.4,75.6,-6.2,73.1,-20.6,69.2C-35,65.4,-49.2,60.2,-61.8,50.7C-74.4,41.3,-85.5,27.6,-89.9,11.6C-94.4,-4.4,-92.2,-22.8,-84,-37.4C-75.8,-52,-61.6,-62.9,-46.6,-60.7C-31.6,-58.5,-15.8,-43.1,-3.3,-38C9.3,-32.9,18.6,-38.1,33.7,-40.4Z" transform="translate(100 100)" />
</svg>
